# xmcd
#
# Track frame offsets:
#	183
#	13180
#	26475
#	40380
#	55575
#	70260
#	82580
#	95588
#	107650
#	120508
#	135920
#	150075
#
# Disc length: 2183 seconds
#
# Revision: 1
# Processed by: cddbd v1.4b41PL2 Copyright (c) Steve Scherf et al.
# Submitted via: audiograbber 1.80
#
DISCID=8208850c
DTITLE=Muddy Waters - The Hoochie Cooghie Man
DYEAR=1900
DGENRE=
TTITLE0=I'm your hoochie coochie man
TTITLE1=She moves me
TTITLE2=I want you to love me
TTITLE3=Standing around crying
TTITLE4=Still a fool
TTITLE5=I can't be satisfied
TTITLE6=I just want to make love to you
TTITLE7=Long distance call
TTITLE8=Louisiana blues
TTITLE9=Honey bee
TTITLE10=Rollin' stone
TTITLE11=I'm ready
EXTD=Eurostar LC 39810022
EXTT0=
EXTT1=
EXTT2=
EXTT3=
EXTT4=
EXTT5=
EXTT6=
EXTT7=
EXTT8=
EXTT9=
EXTT10=
EXTT11=
PLAYORDER=
